<svg xmlns="http://www.w3.org/2000/svg" viewBox="0 0 260 220"><defs><radialGradient id="p" cx="50%" cy="50%" r="50%"><stop offset="0%" stop-color="#ffa7d1"/><stop offset="100%" stop-color="#ff4d8f"/></radialGradient></defs><path fill="url(#p)" d="M130 10c16 0 18 28 36 34s48-12 52 2-18 30-16 46 28 32 16 46-38-2-52 4-20 34-36 34-18-28-36-34-48 12-52-2 18-30 16-46-28-32-16-46 38 2 52-4 20-34 36-34z"/><circle cx="110" cy="70" r="20" fill="#e53935"/><rect x="108" y="47" width="6" height="12" rx="2" fill="#795548"/><path d="M114 47c6-9 16-9 22-6-7 4-13 8-22 6z" fill="#43a047"/></svg>